<svg width="411" height="823" viewBox="0 0 411 823" fill="none" xmlns="http://www.w3.org/2000/svg">
<path d="M37.71 -111.938C39.643 -115.286 43.9241 -116.433 47.2721 -114.5L584.561 195.704C587.909 197.637 589.057 201.918 587.124 205.266L413.494 506.002C411.273 509.849 405.378 507.557 406.338 503.22C429.848 397.047 340.555 299.861 232.775 314.314L121.397 329.25C20.6933 337.15 -77.5904 295.734 -142.268 218.142L-148.146 211.089C-148.375 210.815 -148.408 210.428 -148.229 210.119L37.71 -111.938Z" fill="#FFC300" fill-opacity="0.5"/>
<path d="M-126.859 -69.5566C-126.859 -73.4226 -123.725 -76.5566 -119.859 -76.5566H429.141C433.007 -76.5566 436.141 -73.4226 436.141 -69.5566V230.512C436.141 234.433 430.632 235.301 429.427 231.57C400.136 140.917 290.236 106.152 214.138 163.467L133.223 224.41C59.1475 274.107 -34.136 285.648 -118.089 255.5L-126.348 252.534C-126.655 252.424 -126.859 252.134 -126.859 251.809V-69.5566Z" fill="#FFC300"/>
<path d="M451.184 1004.94C450.907 1008.8 447.555 1011.7 443.699 1011.42L-103.881 971.964C-107.737 971.686 -110.637 968.335 -110.36 964.479L-88.7928 665.187C-88.511 661.275 -82.9538 660.806 -82.0194 664.614C-59.3196 757.137 47.7968 799.711 127.817 748.014L212.904 693.044C290.359 648.799 384.231 643.993 465.8 680.097L473.825 683.649C474.122 683.78 474.305 684.084 474.282 684.409L451.184 1004.94Z" fill="#FFC300"/>
</svg>
